<svg width="16" height="16" viewBox="0 0 16 16" fill="none" xmlns="http://www.w3.org/2000/svg">
<g clip-path="url(#clip0_5406_18300)">
<path d="M7.99888 15.4294C12.1016 15.4294 15.4275 12.1036 15.4275 8.00084C15.4275 3.89815 12.1016 0.572266 7.99888 0.572266C3.8962 0.572266 0.570312 3.89815 0.570312 8.00084C0.570312 12.1036 3.8962 15.4294 7.99888 15.4294Z" stroke="white" stroke-linecap="round" stroke-linejoin="round"/>
<path d="M6.28516 11.4297H9.71373" stroke="white" stroke-width="1.14286" stroke-linecap="round" stroke-linejoin="round"/>
<path d="M7.99833 11.4297V7.42969H6.85547" stroke="white" stroke-linecap="round" stroke-linejoin="round"/>
<path d="M7.9986 4.85854C7.84081 4.85854 7.71289 4.73062 7.71289 4.57282C7.71289 4.41503 7.84081 4.28711 7.9986 4.28711" stroke="white" stroke-width="1.14286" stroke-linecap="round" stroke-linejoin="round"/>
<path d="M7.99902 4.85854C8.15682 4.85854 8.28474 4.73062 8.28474 4.57282C8.28474 4.41503 8.15682 4.28711 7.99902 4.28711" stroke="white" stroke-linecap="round" stroke-linejoin="round"/>
</g>
<defs>
<clipPath id="clip0_5406_18300">
<rect width="16" height="16" fill="white"/>
</clipPath>
</defs>
</svg>
