<svg width="24" height="25" viewBox="0 0 24 25" fill="none" xmlns="http://www.w3.org/2000/svg">
<g clip-path="url(#clip0_358_1424)">
<path d="M12.6194 23.5231C12.2222 23.6764 11.7823 23.6764 11.3851 23.5231C8.28341 22.307 5.62017 20.1844 3.7426 17.4323C1.86504 14.6802 0.860294 11.4261 0.859375 8.09456V3.07171C0.859375 2.61704 1.03999 2.18102 1.36148 1.85952C1.68297 1.53803 2.119 1.35742 2.57366 1.35742H21.4308C21.8854 1.35742 22.3215 1.53803 22.643 1.85952C22.9644 2.18102 23.1451 2.61704 23.1451 3.07171V8.07742C23.1477 11.4119 22.1445 14.6697 20.2666 17.4252C18.389 20.1808 15.7238 22.3058 12.6194 23.5231Z" stroke="white" stroke-width="1.71429" stroke-linecap="round" stroke-linejoin="round"/>
<path d="M4.85938 18.8958C6.39574 16.5908 9.01892 15.0723 11.9968 15.0723C14.9747 15.0723 17.5978 16.5908 19.1341 18.8958" stroke="white" stroke-width="1.71429" stroke-linecap="round" stroke-linejoin="round"/>
<path d="M11.9978 12.4994C14.128 12.4994 15.8549 10.7725 15.8549 8.6423C15.8549 6.51206 14.128 4.78516 11.9978 4.78516C9.86753 4.78516 8.14062 6.51206 8.14062 8.6423C8.14062 10.7725 9.86753 12.4994 11.9978 12.4994Z" stroke="white" stroke-width="1.71429" stroke-linecap="round" stroke-linejoin="round"/>
</g>
<defs>
<clipPath id="clip0_358_1424">
<rect width="24" height="24" fill="white" transform="translate(0 0.5)"/>
</clipPath>
</defs>
</svg>
