<svg width="16" height="16" viewBox="0 0 16 16" fill="none" xmlns="http://www.w3.org/2000/svg">
<g clip-path="url(#clip0_5406_18289)">
<path d="M1.71512 2.28711C1.41201 2.28711 1.12133 2.40752 0.907 2.62184C0.692674 2.83617 0.572266 3.12686 0.572266 3.42997V14.2871C0.572266 14.5902 0.692674 14.8809 0.907 15.0952C1.12133 15.3095 1.41201 15.43 1.71512 15.43H14.2866C14.5896 15.43 14.8804 15.3095 15.0947 15.0952C15.309 14.8809 15.4294 14.5902 15.4294 14.2871V3.42997C15.4294 3.12686 15.309 2.83617 15.0947 2.62184C14.8804 2.40752 14.5896 2.28711 14.2866 2.28711H12.0008" stroke="white" stroke-linecap="round" stroke-linejoin="round"/>
<path d="M4.00098 0.572266V4.00084" stroke="white" stroke-linecap="round" stroke-linejoin="round"/>
<path d="M12.001 0.572266V4.00084" stroke="white" stroke-linecap="round" stroke-linejoin="round"/>
<path d="M6.21094 2.28711L9.71429 2.28711" stroke="white" stroke-width="1.14286" stroke-linecap="round" stroke-linejoin="round"/>
<path d="M8.28551 5.31872L9.24163 7.2421C9.26302 7.29074 9.29693 7.33284 9.3399 7.36409C9.38287 7.39534 9.43337 7.41464 9.48623 7.41998L11.6097 7.7424C11.6704 7.75029 11.7277 7.77532 11.7746 7.81453C11.8217 7.85376 11.8566 7.90554 11.8752 7.96385C11.8938 8.02216 11.8955 8.08458 11.88 8.1438C11.8646 8.20302 11.8325 8.25661 11.7877 8.29828L10.22 9.78808C10.1966 9.83266 10.1844 9.88226 10.1844 9.9326C10.1844 9.98296 10.1966 10.0325 10.22 10.0771L10.5202 12.1896C10.533 12.2506 10.5278 12.314 10.5053 12.3722C10.4827 12.4304 10.4438 12.4808 10.3932 12.5172C10.3426 12.5537 10.2825 12.5747 10.2202 12.5778C10.1579 12.5808 10.096 12.5656 10.0421 12.5341L8.15209 11.5336C8.10318 11.5115 8.05013 11.5001 7.99645 11.5001C7.94277 11.5001 7.88971 11.5115 7.8408 11.5336L5.95077 12.5341C5.89689 12.5656 5.83504 12.5808 5.77273 12.5778C5.71041 12.5747 5.65031 12.5537 5.5997 12.5172C5.5491 12.4808 5.51016 12.4304 5.48762 12.3722C5.46507 12.314 5.4599 12.2506 5.47271 12.1896L5.82847 10.0771C5.84377 10.0281 5.8467 9.97605 5.83701 9.92562C5.8273 9.87518 5.80528 9.82793 5.77288 9.78808L4.20527 8.28717C4.16369 8.24505 4.1345 8.19229 4.12092 8.13469C4.10733 8.07708 4.10986 8.01685 4.12823 7.96058C4.14661 7.90432 4.1801 7.8542 4.22507 7.81571C4.27005 7.77723 4.32473 7.75186 4.38316 7.7424L6.50666 7.43109C6.55952 7.42574 6.61002 7.40646 6.65299 7.37521C6.69597 7.34396 6.72987 7.30186 6.75125 7.25321L7.70738 5.32984C7.73297 5.27539 7.77327 5.22919 7.82375 5.19644C7.87422 5.16371 7.93285 5.14574 7.99299 5.14459C8.05314 5.14344 8.11241 5.15913 8.1641 5.1899C8.21579 5.22067 8.25785 5.26529 8.28551 5.31872Z" stroke="white" stroke-linecap="round" stroke-linejoin="round"/>
</g>
<defs>
<clipPath id="clip0_5406_18289">
<rect width="16" height="16" fill="white"/>
</clipPath>
</defs>
</svg>
