<svg width="16" height="16" viewBox="0 0 16 16" fill="none" xmlns="http://www.w3.org/2000/svg">
<g clip-path="url(#clip0_5406_18312)">
<path d="M5.55287 2.28516H1.14174C0.82615 2.28516 0.570312 2.541 0.570312 2.85658V11.9994C0.570312 12.315 0.82615 12.5709 1.14174 12.5709H14.856C15.1716 12.5709 15.4275 12.315 15.4275 11.9994V10.2852" stroke="white" stroke-linecap="round" stroke-linejoin="round"/>
<path d="M6.85575 12.5703L5.71289 15.4275" stroke="white" stroke-linecap="round" stroke-linejoin="round"/>
<path d="M9.1416 12.5703L10.2845 15.4275" stroke="white" stroke-linecap="round" stroke-linejoin="round"/>
<path d="M4.57031 15.4277H11.4275" stroke="white" stroke-linecap="round" stroke-linejoin="round"/>
<path d="M11.9658 0.662109V2.3764" stroke="white" stroke-linecap="round" stroke-linejoin="round"/>
<path d="M8.50195 2.66211L9.98767 3.51925" stroke="white" stroke-linecap="round" stroke-linejoin="round"/>
<path d="M8.50195 6.66183L9.98767 5.80469" stroke="white" stroke-linecap="round" stroke-linejoin="round"/>
<path d="M11.9668 8.66155V6.94727" stroke="white" stroke-linecap="round" stroke-linejoin="round"/>
<path d="M15.4271 6.66183L13.9414 5.80469" stroke="white" stroke-linecap="round" stroke-linejoin="round"/>
<path d="M15.4271 2.66211L13.9414 3.51925" stroke="white" stroke-linecap="round" stroke-linejoin="round"/>
<path d="M11.9664 6.94838C13.2287 6.94838 14.2521 5.92507 14.2521 4.66267C14.2521 3.4003 13.2287 2.37695 11.9664 2.37695C10.704 2.37695 9.68066 3.4003 9.68066 4.66267C9.68066 5.92507 10.704 6.94838 11.9664 6.94838Z" stroke="white" stroke-linecap="round" stroke-linejoin="round"/>
</g>
<defs>
<clipPath id="clip0_5406_18312">
<rect width="16" height="16" fill="white"/>
</clipPath>
</defs>
</svg>
