<svg width="20" height="20" viewBox="0 0 20 20" fill="none" xmlns="http://www.w3.org/2000/svg">
<path d="M9.15853 5.05996C9.55211 4.4472 10.4477 4.4472 10.8413 5.05996L12.0621 6.96064C12.1975 7.17147 12.4072 7.32378 12.6495 7.38742L14.8344 7.96114C15.5388 8.1461 15.8156 8.99789 15.3545 9.56156L13.9241 11.31C13.7654 11.5039 13.6853 11.7504 13.6997 12.0005L13.8292 14.2558C13.871 14.9829 13.1464 15.5093 12.4678 15.2449L10.363 14.4248C10.1295 14.3338 9.87036 14.3338 9.63687 14.4248L7.53202 15.2449C6.85344 15.5093 6.12886 14.9829 6.17063 14.2558L6.30016 12.0005C6.31453 11.7504 6.23445 11.5039 6.07579 11.31L4.64538 9.56156C4.18423 8.99789 4.46099 8.1461 5.16539 7.96114L7.3503 7.38742C7.59266 7.32378 7.8023 7.17147 7.93771 6.96064L9.15853 5.05996Z" stroke="#8A949E" stroke-width="0.833333" stroke-linecap="round" stroke-linejoin="round"/>
</svg>
