<svg width="16" height="16" viewBox="0 0 16 16" fill="none" xmlns="http://www.w3.org/2000/svg">
<path fill-rule="evenodd" clip-rule="evenodd" d="M2.6665 2.53301C2.6665 1.87027 3.20376 1.33301 3.8665 1.33301H8.99984C9.1413 1.33301 9.27697 1.38921 9.37699 1.48925L13.1765 5.28938C13.2765 5.3894 13.3327 5.52504 13.3327 5.66647V13.4665C13.3327 14.1292 12.7954 14.6665 12.1327 14.6665H3.8665C3.20376 14.6665 2.6665 14.1292 2.6665 13.4665V2.53301ZM9.53317 3.15408L11.5119 5.13314H9.6665C9.59287 5.13314 9.53317 5.07344 9.53317 4.9998V3.15408ZM4.79948 8.93315C4.79948 8.6386 5.03826 8.39982 5.33281 8.39982H7.99948C8.29403 8.39982 8.53281 8.6386 8.53281 8.93315C8.53281 9.22771 8.29403 9.46649 7.99948 9.46649H5.33281C5.03826 9.46649 4.79948 9.22771 4.79948 8.93315ZM5.33281 10.6664C5.03826 10.6664 4.79948 10.9052 4.79948 11.1998C4.79948 11.4943 5.03826 11.7331 5.33281 11.7331H9.99948C10.294 11.7331 10.5328 11.4943 10.5328 11.1998C10.5328 10.9052 10.294 10.6664 9.99948 10.6664H5.33281Z" fill="#62686F"/>
</svg>
