<svg width="20" height="20" viewBox="0 0 20 20" fill="none" xmlns="http://www.w3.org/2000/svg">
<path d="M7.68541 3.78846L8.24772 2.33692C8.34255 2.09116 8.5094 1.87977 8.7264 1.73043C8.94341 1.5811 9.20045 1.50078 9.46387 1.5H10.5362C10.7996 1.50078 11.0567 1.5811 11.2737 1.73043C11.4907 1.87977 11.6575 2.09116 11.7523 2.33692L12.3146 3.78846L14.2238 4.88692L15.7669 4.65154C16.0239 4.61666 16.2854 4.65895 16.5183 4.77305C16.7511 4.88715 16.9447 5.06788 17.0746 5.29231L17.5977 6.20769C17.7317 6.43569 17.7936 6.69897 17.7749 6.96278C17.7562 7.22659 17.6579 7.47855 17.493 7.68538L16.5384 8.90154V11.0985L17.5192 12.3146C17.6841 12.5215 17.7823 12.7734 17.801 13.0372C17.8197 13.301 17.7579 13.5643 17.6238 13.7923L17.1007 14.7077C16.9709 14.9321 16.7772 15.1128 16.5444 15.227C16.3115 15.341 16.05 15.3834 15.7931 15.3485L14.25 15.1131L12.3408 16.2115L11.7785 17.6631C11.6837 17.9088 11.5168 18.1202 11.2998 18.2696C11.0828 18.4189 10.8258 18.4992 10.5623 18.5H9.46387C9.20045 18.4992 8.94341 18.4189 8.7264 18.2696C8.5094 18.1202 8.34255 17.9088 8.24772 17.6631L7.68541 16.2115L5.77618 15.1131L4.2331 15.3485C3.97617 15.3834 3.71465 15.341 3.48181 15.227C3.24897 15.1128 3.0553 14.9321 2.92541 14.7077L2.40233 13.7923C2.26829 13.5643 2.20655 13.301 2.22522 13.0372C2.24389 12.7734 2.34213 12.5215 2.50695 12.3146L3.46156 11.0985V8.90154L2.48079 7.68538C2.31597 7.47855 2.21774 7.22659 2.19907 6.96278C2.18039 6.69897 2.24214 6.43569 2.37618 6.20769L2.89926 5.29231C3.02915 5.06788 3.22282 4.88715 3.45565 4.77305C3.6885 4.65895 3.95001 4.61666 4.20695 4.65154L5.75003 4.88692L7.68541 3.78846ZM7.38464 10C7.38464 10.5173 7.53803 11.0229 7.82541 11.453C8.1128 11.8831 8.52126 12.2183 8.99916 12.4163C9.47707 12.6142 10.0029 12.666 10.5103 12.5651C11.0176 12.4642 11.4836 12.2151 11.8494 11.8494C12.2152 11.4836 12.4642 11.0176 12.5652 10.5102C12.6661 10.0029 12.6143 9.47704 12.4163 8.99913C12.2184 8.52124 11.8832 8.11276 11.4531 7.82539C11.023 7.53801 10.5173 7.38462 10 7.38462C9.30639 7.38462 8.64115 7.66016 8.15067 8.15065C7.6602 8.64112 7.38464 9.30636 7.38464 10Z" stroke="white" stroke-width="1.5" stroke-linecap="round" stroke-linejoin="round"/>
</svg>
