<svg width="16" height="16" viewBox="0 0 16 16" fill="none" xmlns="http://www.w3.org/2000/svg">
<path d="M7.15861 1.80996C7.55219 1.1972 8.44781 1.1972 8.84139 1.80996L10.5168 4.41833C10.6522 4.62917 10.8618 4.78148 11.1042 4.84512L14.1026 5.63245C14.807 5.81742 15.0838 6.6692 14.6226 7.23287L12.6596 9.63227C12.5009 9.82622 12.4209 10.0727 12.4352 10.3228L12.613 13.4178C12.6548 14.1449 11.9302 14.6713 11.2516 14.4069L8.36304 13.2815C8.12956 13.1905 7.87044 13.1905 7.63696 13.2815L4.74839 14.4069C4.06981 14.6713 3.34523 14.1449 3.38699 13.4178L3.56476 10.3228C3.57912 10.0727 3.49905 9.82622 3.34038 9.63227L1.37739 7.23287C0.916239 6.6692 1.193 5.81742 1.8974 5.63245L4.89582 4.84512C5.13819 4.78148 5.34782 4.62917 5.48324 4.41833L7.15861 1.80996Z" fill="#FFCC40"/>
</svg>
