<svg width="24" height="25" viewBox="0 0 24 25" fill="none" xmlns="http://www.w3.org/2000/svg">
<g clip-path="url(#clip0_358_1431)">
<path d="M22.5949 23.6443C21.875 21.4 20.4613 19.4423 18.5574 18.0534C16.6533 16.6644 14.3573 15.916 12.0005 15.916C9.64372 15.916 7.3478 16.6644 5.44376 18.0534C3.53973 19.4423 2.12594 21.4 1.40625 23.6443H22.5949Z" stroke="#8A949E" stroke-width="1.71429" stroke-linecap="round" stroke-linejoin="round"/>
<path d="M12.005 15.9298C16.0118 15.9298 19.26 12.6817 19.26 8.67487C19.26 4.66807 16.0118 1.41992 12.005 1.41992C7.99816 1.41992 4.75 4.66807 4.75 8.67487C4.75 12.6817 7.99816 15.9298 12.005 15.9298Z" stroke="#8A949E" stroke-width="1.71429" stroke-linecap="round" stroke-linejoin="round"/>
<path d="M14.3629 11.4824C14.3629 11.4824 13.761 12.6669 11.994 12.6669C10.227 12.6669 9.625 11.4824 9.625 11.4824" stroke="#8A949E" stroke-width="1.71429" stroke-linecap="round" stroke-linejoin="round"/>
<path d="M19.1201 7.29358C19.1038 7.29368 19.0877 7.29373 19.0715 7.29373C16.9627 7.29373 15.0694 6.37112 13.7731 4.90753C12.4769 6.37116 10.5836 7.29379 8.47478 7.29379C7.2502 7.29379 6.09827 6.98266 5.09375 6.43515C6.03753 3.52445 8.77118 1.41992 11.9964 1.41992C15.5309 1.41992 18.475 3.94741 19.1201 7.29358Z" stroke="#8A949E" stroke-width="1.71429" stroke-linecap="round" stroke-linejoin="round"/>
</g>
<defs>
<clipPath id="clip0_358_1431">
<rect width="24" height="24" fill="white" transform="translate(0 0.5)"/>
</clipPath>
</defs>
</svg>
