<svg width="20" height="20" viewBox="0 0 20 20" fill="none" xmlns="http://www.w3.org/2000/svg">
<path d="M9.29876 4.84163C9.62674 4.331 10.3731 4.331 10.7011 4.84163L12.0972 7.01528C12.2101 7.19097 12.3848 7.3179 12.5867 7.37093L15.0854 8.02704C15.6724 8.18118 15.9031 8.891 15.5188 9.36073L13.8829 11.3602C13.7507 11.5218 13.684 11.7272 13.696 11.9357L13.8441 14.5148C13.8789 15.1207 13.2751 15.5594 12.7096 15.3391L10.3025 14.4012C10.1079 14.3254 9.89195 14.3254 9.69738 14.4012L7.29024 15.3391C6.72476 15.5594 6.12095 15.1207 6.15575 14.5148L6.30388 11.9357C6.31586 11.7272 6.24913 11.5218 6.1169 11.3602L4.48108 9.36073C4.09678 8.891 4.32742 8.18118 4.91441 8.02704L7.41311 7.37093C7.61507 7.3179 7.78977 7.19097 7.90262 7.01528L9.29876 4.84163Z" fill="#FFCC40"/>
</svg>
