<svg width="16" height="16" viewBox="0 0 16 16" fill="none" xmlns="http://www.w3.org/2000/svg">
<path d="M5.71554 7.42901C7.2935 7.42901 8.57268 6.14982 8.57268 4.57186C8.57268 2.99391 7.2935 1.71472 5.71554 1.71472C4.13759 1.71472 2.8584 2.99391 2.8584 4.57186C2.8584 6.14982 4.13759 7.42901 5.71554 7.42901Z" stroke="white" stroke-linecap="round" stroke-linejoin="round"/>
<path d="M0.572266 15.4292H5.71512H10.858V14.8097C10.8489 13.9386 10.6191 13.084 10.1902 12.3258C9.76133 11.5675 9.14724 10.9304 8.40533 10.4738C7.66341 10.0172 6.81788 9.75618 5.94772 9.71498C5.87014 9.71131 5.79259 9.70939 5.71512 9.70923C5.63766 9.70939 5.56011 9.71131 5.48253 9.71498C4.61237 9.75618 3.76684 10.0172 3.02492 10.4738C2.28301 10.9304 1.66892 11.5675 1.24 12.3258C0.811096 13.084 0.581364 13.9386 0.572266 14.8097V15.4292Z" stroke="white" stroke-linecap="round" stroke-linejoin="round"/>
<path d="M10.2861 7.42901C11.8641 7.42901 13.1433 6.14982 13.1433 4.57186C13.1433 2.99391 11.8641 1.71472 10.2861 1.71472" stroke="white" stroke-linecap="round" stroke-linejoin="round"/>
<path d="M13.144 15.4293H15.4297V14.8097C15.4205 13.9386 15.1908 13.084 14.7619 12.3258C14.333 11.5675 13.7189 10.9304 12.977 10.4738C12.4975 10.1787 11.9745 9.96525 11.4297 9.84009" stroke="white" stroke-linecap="round" stroke-linejoin="round"/>
</svg>
