<svg width="14" height="14" viewBox="0 0 14 14" fill="none" xmlns="http://www.w3.org/2000/svg">
<path d="M6.51606 1.45585C6.73114 1.07201 7.26886 1.07201 7.48394 1.45585L13.0493 11.3877C13.2644 11.7715 12.9955 12.2513 12.5654 12.2513H1.43464C1.00447 12.2513 0.735614 11.7715 0.9507 11.3877L6.51606 1.45585Z" fill="white"/>
<path fill-rule="evenodd" clip-rule="evenodd" d="M6.70573 4.66797C6.54465 4.66797 6.41406 4.79855 6.41406 4.95964V8.45964C6.41406 8.62072 6.54465 8.7513 6.70573 8.7513H7.28906C7.45015 8.7513 7.58073 8.62072 7.58073 8.45964V4.95964C7.58073 4.79855 7.45015 4.66797 7.28906 4.66797H6.70573ZM6.70573 9.33464C6.54465 9.33464 6.41406 9.46522 6.41406 9.6263V10.2096C6.41406 10.3707 6.54465 10.5013 6.70573 10.5013H7.28906C7.45015 10.5013 7.58073 10.3707 7.58073 10.2096V9.6263C7.58073 9.46522 7.45015 9.33464 7.28906 9.33464H6.70573Z" fill="#DE3412"/>
</svg>
