<svg width="40" height="41" viewBox="0 0 40 41" fill="none" xmlns="http://www.w3.org/2000/svg">
<path d="M0 20.5C0 9.45431 8.95431 0.5 20 0.5C31.0457 0.5 40 9.45431 40 20.5C40 31.5457 31.0457 40.5 20 40.5C8.95431 40.5 0 31.5457 0 20.5Z" fill="#C1D4EA"/>
<path d="M25.8334 28C25.8334 24.7783 23.2217 22.1667 20.0001 22.1667C16.7784 22.1667 14.1667 24.7783 14.1667 28M20.0001 19.6667C18.1591 19.6667 16.6667 18.1743 16.6667 16.3333C16.6667 14.4924 18.1591 13 20.0001 13C21.841 13 23.3334 14.4924 23.3334 16.3333C23.3334 18.1743 21.841 19.6667 20.0001 19.6667Z" stroke="#0F5096" stroke-width="1.66667" stroke-linecap="round" stroke-linejoin="round"/>
</svg>
