<svg width="16" height="16" viewBox="0 0 16 16" fill="none" xmlns="http://www.w3.org/2000/svg">
<path d="M2.2846 11.1441H1.71317C1.41006 11.1441 1.11938 11.0238 0.905047 10.8094C0.69072 10.5951 0.570312 10.3043 0.570312 10.0013V7.71556C0.570312 7.41245 0.69072 7.12177 0.905047 6.90743C1.11938 6.6931 1.41006 6.5727 1.71317 6.5727H3.42746L4.30746 3.92127C4.38698 3.68473 4.54174 3.4807 4.74811 3.34037C4.95447 3.20004 5.20109 3.13113 5.45031 3.14413H10.0332C10.2824 3.13113 10.529 3.20004 10.7354 3.34037C10.9417 3.4807 11.0965 3.68473 11.176 3.92127L11.9989 6.5727H14.2846C14.5877 6.5727 14.8784 6.6931 15.0927 6.90743C15.307 7.12177 15.4275 7.41245 15.4275 7.71556V10.0013C15.4275 10.3043 15.307 10.5951 15.0927 10.8094C14.8784 11.0238 14.5877 11.1441 14.2846 11.1441H13.7132" stroke="white" stroke-linecap="round" stroke-linejoin="round"/>
<path d="M11.9986 12.8587C11.0512 12.8587 10.2832 12.0907 10.2832 11.1433C10.2832 10.1957 11.0512 9.42773 11.9986 9.42773C12.9462 9.42773 13.7142 10.1957 13.7142 11.1433C13.7142 12.0907 12.9462 12.8587 11.9986 12.8587Z" stroke="white" stroke-linecap="round" stroke-linejoin="round"/>
<path d="M3.9987 12.8587C3.05126 12.8587 2.2832 12.0907 2.2832 11.1433C2.2832 10.1958 3.05126 9.42773 3.9987 9.42773C4.94614 9.42773 5.7142 10.1958 5.7142 11.1433C5.7142 12.0907 4.94614 12.8587 3.9987 12.8587Z" stroke="white" stroke-linecap="round" stroke-linejoin="round"/>
<path d="M10.2819 11.1445H5.71289" stroke="white" stroke-linecap="round" stroke-linejoin="round"/>
</svg>
