<svg width="16" height="16" viewBox="0 0 16 16" fill="none" xmlns="http://www.w3.org/2000/svg">
<g clip-path="url(#clip0_5406_18459)">
<path d="M7.99874 9.14397C9.5767 9.14397 10.8559 7.86478 10.8559 6.28683C10.8559 4.70888 9.5767 3.42969 7.99874 3.42969C6.42079 3.42969 5.1416 4.70888 5.1416 6.28683C5.1416 7.86478 6.42079 9.14397 7.99874 9.14397Z" stroke="white" stroke-linecap="round" stroke-linejoin="round"/>
<path d="M3.11914 13.6006C3.62913 12.7634 4.34589 12.0716 5.20052 11.5916C6.05515 11.1114 7.0189 10.8593 7.99914 10.8593C8.97938 10.8593 9.94313 11.1114 10.7978 11.5916C11.6524 12.0716 12.3691 12.7634 12.8792 13.6006" stroke="white" stroke-linecap="round" stroke-linejoin="round"/>
<path d="M7.99888 15.4294C12.1016 15.4294 15.4275 12.1036 15.4275 8.00084C15.4275 3.89815 12.1016 0.572266 7.99888 0.572266C3.8962 0.572266 0.570312 3.89815 0.570312 8.00084C0.570312 12.1036 3.8962 15.4294 7.99888 15.4294Z" stroke="white" stroke-linecap="round" stroke-linejoin="round"/>
</g>
<defs>
<clipPath id="clip0_5406_18459">
<rect width="16" height="16" fill="white"/>
</clipPath>
</defs>
</svg>
