<svg width="16" height="16" viewBox="0 0 16 16" fill="none" xmlns="http://www.w3.org/2000/svg">
<path d="M1.5 14.6667V1.33333C1.5 0.596954 2.09695 0 2.83333 0H10.5L14.5 4V14.6667C14.5 15.403 13.903 16 13.1667 16H2.83333C2.09695 16 1.5 15.403 1.5 14.6667Z" fill="url(#paint0_radial_9903_23572)"/>
<path d="M11.0503 3.99989L14.5 3.99918L10.5001 0V3.44976C10.5001 3.75363 10.7465 3.99995 11.0503 3.99989Z" fill="url(#paint1_radial_9903_23572)"/>
<path d="M5.5 6.83203L8 5.00391L10.5 6.83203" stroke="#7E8594" stroke-width="0.6" stroke-linecap="round" stroke-linejoin="round"/>
<rect x="4" y="6.44141" width="8" height="6" rx="0.5" fill="#4B5563"/>
<ellipse cx="8" cy="5.00393" rx="0.5" ry="0.500024" fill="#4B5563"/>
<path d="M6 8.54102H10" stroke="#F9FAFB" stroke-width="0.6" stroke-linecap="round" stroke-linejoin="round"/>
<path d="M6 10.3418H10" stroke="#F9FAFB" stroke-width="0.6" stroke-linecap="round" stroke-linejoin="round"/>
<defs>
<radialGradient id="paint0_radial_9903_23572" cx="0" cy="0" r="1" gradientUnits="userSpaceOnUse" gradientTransform="translate(1.5 0.518341) rotate(51.289) scale(19.8404 16.1203)">
<stop stop-color="#E3E8F0"/>
<stop offset="1" stop-color="#ADB2BA"/>
</radialGradient>
<radialGradient id="paint1_radial_9903_23572" cx="0" cy="0" r="1" gradientUnits="userSpaceOnUse" gradientTransform="translate(10.5 0.642674) rotate(48.5773) scale(4.47734)">
<stop stop-color="#A6ADB9"/>
<stop offset="1" stop-color="#858C97"/>
</radialGradient>
</defs>
</svg>
