<svg width="16" height="16" viewBox="0 0 16 16" fill="none" xmlns="http://www.w3.org/2000/svg">
<path fill-rule="evenodd" clip-rule="evenodd" d="M3.43837 5.50387C3.7124 5.4698 3.96216 5.66433 3.99623 5.93837L4.88182 13.0617C4.91295 13.3121 5.12571 13.5001 5.378 13.5001H10.6243C10.8761 13.5001 11.0886 13.3128 11.1203 13.063L12.004 6.09568C12.0388 5.82173 12.289 5.62782 12.563 5.66256C12.8369 5.69731 13.0308 5.94756 12.9961 6.2215L12.1124 13.1888C12.0173 13.9382 11.3798 14.5001 10.6243 14.5001H5.378C4.62113 14.5001 3.98284 13.9362 3.88946 13.1851L3.00387 6.06174C2.9698 5.78771 3.16433 5.53794 3.43837 5.50387Z" fill="#464C53"/>
<path fill-rule="evenodd" clip-rule="evenodd" d="M1.99976 4.26367C1.99976 3.98753 2.22361 3.76367 2.49976 3.76367H13.5004C13.7765 3.76367 14.0004 3.98753 14.0004 4.26367C14.0004 4.53981 13.7765 4.76367 13.5004 4.76367H2.49976C2.22361 4.76367 1.99976 4.53981 1.99976 4.26367Z" fill="#464C53"/>
<path fill-rule="evenodd" clip-rule="evenodd" d="M5.34212 2.48744C5.49812 1.904 6.02642 1.50098 6.6276 1.50098H9.37354C9.97471 1.50098 10.503 1.904 10.659 2.48744C10.6618 2.49775 10.6642 2.50815 10.6663 2.51861L10.8239 3.30723C10.8239 3.30716 10.8239 3.3073 10.8239 3.30723C10.8771 3.57261 11.1107 3.76429 11.3813 3.76429C11.6574 3.76429 11.8813 3.98814 11.8813 4.26429C11.8813 4.54043 11.6574 4.76429 11.3813 4.76429C10.6334 4.76429 9.98998 4.23581 9.84335 3.50359L9.68952 2.73382C9.64706 2.59584 9.51939 2.50098 9.37354 2.50098H6.6276C6.48174 2.50098 6.35408 2.59584 6.31162 2.73382L6.15783 3.50339C6.01119 4.2356 5.36769 4.76429 4.61987 4.76429C4.34373 4.76429 4.11987 4.54043 4.11987 4.26429C4.11987 3.98814 4.34373 3.76429 4.61987 3.76429C4.89045 3.76429 5.12397 3.57281 5.17722 3.30743L5.33485 2.51861C5.33694 2.50815 5.33937 2.49775 5.34212 2.48744Z" fill="#464C53"/>
</svg>
