<svg width="16" height="16" viewBox="0 0 16 16" fill="none" xmlns="http://www.w3.org/2000/svg">
<path d="M14.51 2H1.49C0.943238 2 0.5 2.48687 0.5 3.08745V12.9125C0.5 13.5131 0.943238 14 1.49 14H14.51C15.0568 14 15.5 13.5131 15.5 12.9125V3.08745C15.5 2.48687 15.0568 2 14.51 2Z" stroke="white" stroke-linecap="round" stroke-linejoin="round"/>
<path d="M10.6953 6.71875H12.966" stroke="white" stroke-linecap="round" stroke-linejoin="round"/>
<path d="M10.6953 8.9707H12.966" stroke="white" stroke-linecap="round" stroke-linejoin="round"/>
<path d="M4.00781 6.38106C4.00781 7.41671 4.84737 8.25626 5.88301 8.25626C6.14483 8.25626 6.39411 8.2026 6.62046 8.10569C7.28948 7.81923 7.7582 7.15489 7.7582 6.38106C7.7582 5.34541 6.91866 4.50586 5.88301 4.50586C4.84737 4.50586 4.00781 5.34541 4.00781 6.38106Z" stroke="white" stroke-linecap="round" stroke-linejoin="round"/>
<path d="M3 11.4926C3.29797 10.9259 3.71674 10.4575 4.21607 10.1325C4.71539 9.80743 5.27848 9.63672 5.85119 9.63672C6.42391 9.63672 6.98699 9.80743 7.48632 10.1325C7.98565 10.4575 8.40442 10.9259 8.70239 11.4926" stroke="white" stroke-linecap="round" stroke-linejoin="round"/>
</svg>
