<svg width="16" height="16" viewBox="0 0 16 16" fill="none" xmlns="http://www.w3.org/2000/svg">
<path d="M13.8314 15.4299V12.192C13.8314 10.5679 12.5148 9.25137 10.8908 9.25137H8.3367V4.47934C8.3367 3.72057 7.72159 3.10547 6.96283 3.10547C6.20405 3.10547 5.58895 3.72057 5.58895 4.47934L5.58894 10.7347L5.13079 10.821C3.73775 11.0831 3.07483 12.6915 3.87855 13.8591L4.06334 14.1275L4.95874 15.4299" stroke="white" stroke-linecap="round" stroke-linejoin="round"/>
<path d="M2.96856 5.63782C2.89841 5.33627 2.86133 5.02203 2.86133 4.69911C2.86133 2.41992 4.70899 0.572266 6.98817 0.572266C9.26737 0.572266 11.115 2.41992 11.115 4.69911C11.115 5.02203 11.0779 5.33627 11.0078 5.63782" stroke="white" stroke-linecap="round" stroke-linejoin="round"/>
</svg>
