<svg width="20" height="20" viewBox="0 0 20 20" fill="none" xmlns="http://www.w3.org/2000/svg">
<g clip-path="url(#clip0_9879_8395)">
<path d="M8.04678 7.43339C9.85891 7.43339 11.3279 5.96437 11.3279 4.15224C11.3279 2.34011 9.85891 0.871094 8.04678 0.871094C6.23465 0.871094 4.76562 2.34011 4.76562 4.15224C4.76562 5.96437 6.23465 7.43339 8.04678 7.43339Z" stroke="#0F5096" stroke-width="1.66667" stroke-linecap="round" stroke-linejoin="round"/>
<path d="M4.10929 18.0915H1.48438V16.1228C1.48438 12.861 4.12862 10.2168 7.39045 10.2168C7.61226 10.2168 7.83122 10.229 8.04667 10.2528" stroke="#0F5096" stroke-width="1.66667" stroke-linecap="round" stroke-linejoin="round"/>
<path d="M14.7812 9.15039V11.2932" stroke="#0F5096" stroke-width="1.66667" stroke-linecap="round" stroke-linejoin="round"/>
<path d="M10.4531 11.6504L12.3103 12.7218" stroke="#0F5096" stroke-width="1.66667" stroke-linecap="round" stroke-linejoin="round"/>
<path d="M10.4531 16.6515L12.3103 15.5801" stroke="#0F5096" stroke-width="1.66667" stroke-linecap="round" stroke-linejoin="round"/>
<path d="M14.7812 19.1507V17.0078" stroke="#0F5096" stroke-width="1.66667" stroke-linecap="round" stroke-linejoin="round"/>
<path d="M19.1071 16.6515L17.25 15.5801" stroke="#0F5096" stroke-width="1.66667" stroke-linecap="round" stroke-linejoin="round"/>
<path d="M19.1071 11.6504L17.25 12.7218" stroke="#0F5096" stroke-width="1.66667" stroke-linecap="round" stroke-linejoin="round"/>
<path d="M14.7791 17.0073C16.3569 17.0073 17.6362 15.7281 17.6362 14.1501C17.6362 12.5722 16.3569 11.293 14.7791 11.293C13.2011 11.293 11.9219 12.5722 11.9219 14.1501C11.9219 15.7281 13.2011 17.0073 14.7791 17.0073Z" stroke="#0F5096" stroke-width="1.66667" stroke-linecap="round" stroke-linejoin="round"/>
</g>
<defs>
<clipPath id="clip0_9879_8395">
<rect width="20" height="20" fill="white"/>
</clipPath>
</defs>
</svg>
