<svg width="16" height="16" viewBox="0 0 16 16" fill="none" xmlns="http://www.w3.org/2000/svg">
<g clip-path="url(#clip0_5406_18431)">
<path d="M8.41129 15.3494C8.14651 15.4516 7.85321 15.4516 7.58843 15.3494C5.52065 14.5387 3.74515 13.1236 2.49344 11.2888C1.24173 9.45409 0.571902 7.28475 0.571289 5.06369V1.71512C0.571289 1.41201 0.691697 1.12133 0.906024 0.907C1.12035 0.692674 1.41104 0.572266 1.71415 0.572266H14.2856C14.5887 0.572266 14.8794 0.692674 15.0937 0.907C15.308 1.12133 15.4284 1.41201 15.4284 1.71512V5.05227C15.4301 7.27527 14.7613 9.44711 13.5095 11.2841C12.2577 13.1212 10.4809 14.5379 8.41129 15.3494Z" stroke="white" stroke-linecap="round" stroke-linejoin="round"/>
<path d="M3.24121 12.2639C4.26545 10.7272 6.01424 9.71484 7.9995 9.71484C9.98474 9.71484 11.7335 10.7272 12.7577 12.2639" stroke="white" stroke-linecap="round" stroke-linejoin="round"/>
<path d="M8.00014 8.00028C9.4203 8.00028 10.5716 6.84901 10.5716 5.42885C10.5716 4.00869 9.4203 2.85742 8.00014 2.85742C6.57998 2.85742 5.42871 4.00869 5.42871 5.42885C5.42871 6.84901 6.57998 8.00028 8.00014 8.00028Z" stroke="white" stroke-linecap="round" stroke-linejoin="round"/>
</g>
<defs>
<clipPath id="clip0_5406_18431">
<rect width="16" height="16" fill="white"/>
</clipPath>
</defs>
</svg>
