<svg width="16" height="16" viewBox="0 0 16 16" fill="none" xmlns="http://www.w3.org/2000/svg">
<g clip-path="url(#clip0_5406_18449)">
<path d="M14.9228 7.42383H10.3074C9.98877 7.42383 9.73047 7.68213 9.73047 8.00075V14.9238C9.73047 15.2424 9.98877 15.5008 10.3074 15.5008H14.9228C15.2414 15.5008 15.4997 15.2424 15.4997 14.9238V8.00075C15.4997 7.68213 15.2414 7.42383 14.9228 7.42383Z" stroke="white" stroke-linecap="round" stroke-linejoin="round"/>
<path d="M14.9228 0.5H10.3074C9.98877 0.5 9.73047 0.758298 9.73047 1.07692V3.39615C9.73047 3.71478 9.98877 3.97308 10.3074 3.97308H14.9228C15.2414 3.97308 15.4997 3.71478 15.4997 3.39615V1.07692C15.4997 0.758298 15.2414 0.5 14.9228 0.5Z" stroke="white" stroke-linecap="round" stroke-linejoin="round"/>
<path d="M5.69231 0.5H1.07692C0.758298 0.5 0.5 0.758298 0.5 1.07692V8C0.5 8.31862 0.758298 8.57692 1.07692 8.57692H5.69231C6.01093 8.57692 6.26923 8.31862 6.26923 8V1.07692C6.26923 0.758298 6.01093 0.5 5.69231 0.5Z" stroke="white" stroke-linecap="round" stroke-linejoin="round"/>
<path d="M5.69231 12.0272H1.07692C0.758298 12.0272 0.5 12.2855 0.5 12.6041V14.9234C0.5 15.242 0.758298 15.5003 1.07692 15.5003H5.69231C6.01093 15.5003 6.26923 15.242 6.26923 14.9234V12.6041C6.26923 12.2855 6.01093 12.0272 5.69231 12.0272Z" stroke="white" stroke-linecap="round" stroke-linejoin="round"/>
</g>
<defs>
<clipPath id="clip0_5406_18449">
<rect width="16" height="16" fill="white"/>
</clipPath>
</defs>
</svg>
