<svg width="16" height="16" viewBox="0 0 16 16" fill="none" xmlns="http://www.w3.org/2000/svg">
<path d="M0 4H16V14C16 14.5523 15.5523 15 15 15H1C0.447715 15 0 14.5523 0 14V4Z" fill="url(#paint0_radial_9903_22883)"/>
<path d="M9.52686 6.75H10.75V7.90377" stroke="#374151" stroke-width="0.8" stroke-linecap="round" stroke-linejoin="round"/>
<path d="M8 6.75H5.75C5.47386 6.75 5.25 6.97386 5.25 7.25V11.75C5.25 12.0261 5.47386 12.25 5.75 12.25H10.25C10.5261 12.25 10.75 12.0261 10.75 11.75V9.5" stroke="#374151" stroke-width="0.8" stroke-linecap="round" stroke-linejoin="round"/>
<path d="M10.4845 7.04688L8.00001 9.49989" stroke="#374151" stroke-width="0.8" stroke-linecap="round" stroke-linejoin="round"/>
<path d="M0 2C0 1.44772 0.447715 1 1 1H15C15.5523 1 16 1.44772 16 2V4H0V2Z" fill="url(#paint1_linear_9903_22883)"/>
<circle cx="1.37891" cy="2.5" r="0.5" fill="white"/>
<circle cx="3.07892" cy="2.5" r="0.5" fill="white"/>
<circle cx="4.7789" cy="2.5" r="0.5" fill="white"/>
<defs>
<radialGradient id="paint0_radial_9903_22883" cx="0" cy="0" r="1" gradientUnits="userSpaceOnUse" gradientTransform="translate(-6.97387e-07 4.35636) rotate(34.8751) scale(18.6146 14.5385)">
<stop stop-color="#E3E8F0"/>
<stop offset="1" stop-color="#ADB2BA"/>
</radialGradient>
<linearGradient id="paint1_linear_9903_22883" x1="0.707659" y1="1.54436" x2="16" y2="4.27666" gradientUnits="userSpaceOnUse">
<stop stop-color="#8991A2"/>
<stop offset="1" stop-color="#616774"/>
</linearGradient>
</defs>
</svg>
