<svg width="16" height="16" viewBox="0 0 16 16" fill="none" xmlns="http://www.w3.org/2000/svg">
<path d="M6 6.5C7.38071 6.5 8.5 5.38071 8.5 4C8.5 2.61929 7.38071 1.5 6 1.5C4.61929 1.5 3.5 2.61929 3.5 4C3.5 5.38071 4.61929 6.5 6 6.5Z" stroke="#CDD1D5" stroke-linecap="round" stroke-linejoin="round"/>
<path d="M7.5 13.4991H1.5V12.957C1.50796 12.1948 1.70898 11.447 2.08427 10.7836C2.45957 10.1202 2.9969 9.56266 3.64607 9.16316C4.29525 8.76367 5.03509 8.53523 5.79648 8.49919C6.55788 8.46314 7.31599 8.62067 8 8.95704" stroke="#CDD1D5" stroke-linecap="round" stroke-linejoin="round"/>
<path d="M11.5 8.5V14.5" stroke="#CDD1D5" stroke-linecap="round" stroke-linejoin="round"/>
<path d="M8.5 11.5H14.5" stroke="#CDD1D5" stroke-linecap="round" stroke-linejoin="round"/>
</svg>
