<svg width="14" height="14" viewBox="0 0 14 14" fill="none" xmlns="http://www.w3.org/2000/svg">
<path d="M4 9V10.1429C4 10.5181 4.07759 10.8896 4.22836 11.2362C4.37913 11.5829 4.60011 11.8978 4.87868 12.1631C5.15726 12.4285 5.48798 12.6389 5.85195 12.7825C6.21593 12.9261 6.60604 13 7 13" stroke="#005BC1" stroke-width="1.3" stroke-linecap="round" stroke-linejoin="round"/>
<path d="M0.5 6.55859C0.5 6.88689 0.564664 7.21198 0.690301 7.5153C0.815938 7.81861 1.00009 8.09421 1.23223 8.32636C1.70107 8.7952 2.33696 9.05859 3 9.05859H4.5V4.05859H3C2.6717 4.05859 2.34661 4.12325 2.04329 4.24889C1.73998 4.37453 1.46438 4.55868 1.23223 4.79082C0.763392 5.25966 0.5 5.89555 0.5 6.55859Z" fill="#005BC1" stroke="#005BC1" stroke-width="0.5" stroke-linecap="round" stroke-linejoin="round"/>
<path d="M4.5 9.0588L12.18 11.6188C12.3304 11.6684 12.4904 11.6816 12.6469 11.6572C12.8033 11.6329 12.9518 11.5717 13.08 11.4788C13.2092 11.3868 13.3147 11.2654 13.3878 11.1245C13.4608 10.9837 13.4993 10.8275 13.5 10.6688V2.4388C13.4993 2.28015 13.4608 2.12395 13.3878 1.98311C13.3147 1.84227 13.2092 1.72082 13.08 1.6288C12.9509 1.53754 12.8021 1.47818 12.6456 1.45558C12.4892 1.43299 12.3296 1.4478 12.18 1.4988L4.5 4.0588V9.0588Z" fill="#005BC1" stroke="#005BC1" stroke-width="0.5" stroke-linecap="round" stroke-linejoin="round"/>
</svg>
