<svg width="16" height="16" viewBox="0 0 16 16" fill="none" xmlns="http://www.w3.org/2000/svg">
<path fill-rule="evenodd" clip-rule="evenodd" d="M10.9468 4.54879C11.0856 4.40993 11.3107 4.40992 11.4496 4.54877C11.5884 4.68762 11.5885 4.91275 11.4496 5.0516L8.50187 7.99952L11.4513 10.9492C11.5902 11.088 11.5902 11.3132 11.4513 11.452C11.3125 11.5909 11.0873 11.5908 10.9485 11.452L7.99905 8.50237L5.04961 11.452C4.91076 11.5908 4.68563 11.5909 4.54677 11.452C4.40792 11.3132 4.40791 11.088 4.54676 10.9492L7.49623 7.99952L4.5485 5.0516C4.40965 4.91275 4.40965 4.68762 4.54851 4.54877C4.68737 4.40992 4.91249 4.40993 5.05134 4.54879L7.99905 7.49667L10.9468 4.54879Z" fill="#464C53"/>
</svg>
