<svg width="16" height="16" viewBox="0 0 16 16" fill="none" xmlns="http://www.w3.org/2000/svg">
<path d="M0 3H16V13C16 13.5523 15.5523 14 15 14H1C0.447715 14 0 13.5523 0 13V3Z" fill="#E5E7EB"/>
<path d="M0 1C0 0.447715 0.447715 0 1 0H15C15.5523 0 16 0.447715 16 1V3H0V1Z" fill="#A6ADB9"/>
<circle cx="1.37891" cy="1.5" r="0.5" fill="white"/>
<circle cx="3.07892" cy="1.5" r="0.5" fill="white"/>
<circle cx="4.7789" cy="1.5" r="0.5" fill="white"/>
<circle cx="8" cy="10" r="6" fill="url(#paint0_linear_9903_23948)"/>
<mask id="mask0_9903_23948" style="mask-type:alpha" maskUnits="userSpaceOnUse" x="2" y="4" width="12" height="12">
<circle cx="8" cy="10" r="6" fill="url(#paint1_linear_9903_23948)"/>
</mask>
<g mask="url(#mask0_9903_23948)">
<path d="M4.25 10H1.5V18H7.5V13.499C7.5 12.9467 7.05228 12.5 6.5 12.5C5.94771 12.5 5.5 12.0523 5.5 11.5V11.25C5.5 10.5596 4.94036 10 4.25 10Z" fill="url(#paint2_radial_9903_23948)"/>
<path d="M5.5 6V3.5H12V6C12 6.55229 11.8023 7 11.25 7C10.6977 7 10 7.44772 10 8C10 8.55229 9.55228 9 9 9H8.5C7.94771 9 7.5 8.55229 7.5 8C7.5 7.44772 7.30228 7 6.75 7C6.19771 7 5.5 6.55228 5.5 6Z" fill="url(#paint3_radial_9903_23948)"/>
<path d="M10 16.5V17.5H14V12.5C12.1144 12.5 11.1716 12.5 10.5858 13.0858C10 13.6716 10 14.6144 10 16.5Z" fill="url(#paint4_radial_9903_23948)"/>
</g>
<defs>
<linearGradient id="paint0_linear_9903_23948" x1="3.58054" y1="5.4341" x2="9.76291" y2="15.8269" gradientUnits="userSpaceOnUse">
<stop stop-color="#BDE8FF"/>
<stop offset="1" stop-color="#00A7FF"/>
</linearGradient>
<linearGradient id="paint1_linear_9903_23948" x1="4.05239" y1="5.26476" x2="10.3783" y2="16.7349" gradientUnits="userSpaceOnUse">
<stop offset="0.0416667" stop-color="#7BD2FF"/>
<stop offset="1" stop-color="#0072AE"/>
</linearGradient>
<radialGradient id="paint2_radial_9903_23948" cx="0" cy="0" r="1" gradientUnits="userSpaceOnUse" gradientTransform="translate(3.19409 5.75522) rotate(45.2593) scale(12.7742 11.0122)">
<stop stop-color="#13CA9E"/>
<stop offset="1" stop-color="#007E68"/>
</radialGradient>
<radialGradient id="paint3_radial_9903_23948" cx="0" cy="0" r="1" gradientUnits="userSpaceOnUse" gradientTransform="translate(3.19409 5.75522) rotate(45.2593) scale(12.7742 11.0122)">
<stop stop-color="#13CA9E"/>
<stop offset="1" stop-color="#007E68"/>
</radialGradient>
<radialGradient id="paint4_radial_9903_23948" cx="0" cy="0" r="1" gradientUnits="userSpaceOnUse" gradientTransform="translate(3.19409 5.75522) rotate(45.2593) scale(12.7742 11.0122)">
<stop stop-color="#13CA9E"/>
<stop offset="1" stop-color="#007E68"/>
</radialGradient>
</defs>
</svg>
