<svg width="16" height="16" viewBox="0 0 16 16" fill="none" xmlns="http://www.w3.org/2000/svg">
<path d="M6.5 5.05469C6.5 4.75802 6.58797 4.46801 6.7528 4.22134C6.91762 3.97466 7.15189 3.7824 7.42597 3.66887C7.70006 3.55534 8.00166 3.52564 8.29264 3.58351C8.58361 3.64139 8.85088 3.78425 9.06066 3.99403C9.27044 4.20381 9.4133 4.47108 9.47118 4.76206C9.52906 5.05303 9.49935 5.35463 9.38582 5.62872C9.27229 5.90281 9.08003 6.13707 8.83336 6.3019C8.58668 6.46672 8.29667 6.55469 8 6.55469V7.05469" stroke="#CDD1D5" stroke-linecap="round" stroke-linejoin="round"/>
<path d="M8 9.11523C7.86193 9.11523 7.75 9.0033 7.75 8.86523C7.75 8.72716 7.86193 8.61523 8 8.61523" stroke="#CDD1D5" stroke-linecap="round" stroke-linejoin="round"/>
<path d="M8 9.11523C8.13807 9.11523 8.25 9.0033 8.25 8.86523C8.25 8.72716 8.13807 8.61523 8 8.61523" stroke="#CDD1D5" stroke-linecap="round" stroke-linejoin="round"/>
<path d="M13.5 14.5H4C3.60218 14.5 3.22064 14.342 2.93934 14.0607C2.65804 13.7794 2.5 13.3978 2.5 13C2.5 12.6022 2.65804 12.2206 2.93934 11.9393C3.22064 11.658 3.60218 11.5 4 11.5H12.5C12.7652 11.5 13.0196 11.3946 13.2071 11.2071C13.3946 11.0196 13.5 10.7652 13.5 10.5V2.5C13.5 2.23478 13.3946 1.98043 13.2071 1.79289C13.0196 1.60536 12.7652 1.5 12.5 1.5H4C3.60901 1.49986 3.23342 1.65239 2.95324 1.92511C2.67305 2.19782 2.51043 2.56915 2.5 2.96V12.96" stroke="#CDD1D5" stroke-linecap="round" stroke-linejoin="round"/>
<path d="M12.5 11.5V14.5" stroke="#CDD1D5" stroke-linecap="round" stroke-linejoin="round"/>
</svg>
