<svg width="16" height="16" viewBox="0 0 16 16" fill="none" xmlns="http://www.w3.org/2000/svg">
<path d="M14.2856 2.85742H1.71415C1.08296 2.85742 0.571289 3.3691 0.571289 4.00028V12.0003C0.571289 12.6315 1.08296 13.1431 1.71415 13.1431H14.2856C14.9168 13.1431 15.4284 12.6315 15.4284 12.0003V4.00028C15.4284 3.3691 14.9168 2.85742 14.2856 2.85742Z" stroke="white" stroke-linecap="round" stroke-linejoin="round"/>
<path d="M5.143 9.71373C6.08977 9.71373 6.85728 8.94622 6.85728 7.99944C6.85728 7.05266 6.08977 6.28516 5.143 6.28516C4.19622 6.28516 3.42871 7.05266 3.42871 7.99944C3.42871 8.94622 4.19622 9.71373 5.143 9.71373Z" stroke="white" stroke-linecap="round" stroke-linejoin="round"/>
<path d="M9.71387 6.28516H12.571" stroke="white" stroke-linecap="round" stroke-linejoin="round"/>
<path d="M9.71387 9.71484H12.571" stroke="white" stroke-linecap="round" stroke-linejoin="round"/>
</svg>
