<svg width="16" height="16" viewBox="0 0 16 16" fill="none" xmlns="http://www.w3.org/2000/svg">
<g clip-path="url(#clip0_5406_18330)">
<path d="M8.40997 15.3528C8.14534 15.4549 7.85218 15.4549 7.58756 15.3528C5.5227 14.56 3.74689 13.1596 2.49471 11.3364C1.24253 9.51319 0.572881 7.35302 0.574221 5.14121V1.71451C0.574221 1.41157 0.694564 1.12103 0.908774 0.90682C1.12299 0.692608 1.41352 0.572266 1.71646 0.572266H14.281C14.584 0.572266 14.8745 0.692608 15.0888 0.90682C15.303 1.12103 15.4233 1.41157 15.4233 1.71451V5.14121C15.4247 7.35302 14.755 9.51319 13.5029 11.3364C12.2506 13.1596 10.4748 14.56 8.40997 15.3528Z" stroke="white" stroke-linecap="round" stroke-linejoin="round"/>
<path d="M9.14123 3.43945H6.85675V5.72393H4.57227V8.0084H6.85675V10.2929H9.14123V8.0084H11.4257V5.72393H9.14123V3.43945Z" stroke="white" stroke-linecap="round" stroke-linejoin="round"/>
</g>
<defs>
<clipPath id="clip0_5406_18330">
<rect width="16" height="16" fill="white"/>
</clipPath>
</defs>
</svg>
