<svg width="24" height="24" viewBox="0 0 24 24" fill="none" xmlns="http://www.w3.org/2000/svg">
<path d="M17.7863 9.43025C17.7863 13.2874 12.0006 17.7874 12.0006 17.7874C12.0006 17.7874 6.21484 13.2874 6.21484 9.43025C6.21484 6.27896 8.84927 3.64453 12.0006 3.64453C15.1518 3.64453 17.7863 6.27896 17.7863 9.43025Z" stroke="white" stroke-width="1.5" stroke-linecap="round" stroke-linejoin="round"/>
<path d="M11.9989 11.361C13.064 11.361 13.9275 10.4976 13.9275 9.43248C13.9275 8.36735 13.064 7.50391 11.9989 7.50391C10.9338 7.50391 10.0703 8.36735 10.0703 9.43248C10.0703 10.4976 10.9338 11.361 11.9989 11.361Z" stroke="white" stroke-width="1.5" stroke-linecap="round" stroke-linejoin="round"/>
<path d="M17.242 15.8594H18.4283L20.3569 20.3594H3.64258L5.57115 15.8594H6.75748" stroke="white" stroke-width="1.5" stroke-linecap="round" stroke-linejoin="round"/>
</svg>
