<svg width="16" height="16" viewBox="0 0 16 16" fill="none" xmlns="http://www.w3.org/2000/svg">
<path fill-rule="evenodd" clip-rule="evenodd" d="M10.9562 1.62301C11.1645 1.41473 11.5022 1.41473 11.7105 1.62301L14.3771 4.28967C14.4771 4.38969 14.5333 4.52535 14.5333 4.6668C14.5333 4.80825 14.4771 4.9439 14.3771 5.04392L8.37712 11.0439C8.2771 11.1439 8.14145 11.2001 8 11.2001H5.33333C5.03878 11.2001 4.8 10.9613 4.8 10.6668V8.00013C4.8 7.85868 4.85619 7.72303 4.95621 7.62301L10.9562 1.62301ZM11.3333 2.75438L10.0876 4.00013L12 5.91255L13.2458 4.6668L11.3333 2.75438ZM11.2458 6.6668L9.33333 4.75438L5.86667 8.22104V10.1335H7.77909L11.2458 6.6668ZM3.2 3.0668C3.12636 3.0668 3.06667 3.12649 3.06667 3.20013V12.8001C3.06667 12.8738 3.12636 12.9335 3.2 12.9335H12.8C12.8736 12.9335 12.9333 12.8738 12.9333 12.8001V8.13346C12.9333 7.83891 13.1721 7.60013 13.4667 7.60013C13.7612 7.60013 14 7.83891 14 8.13346V12.8001C14 13.4629 13.4627 14.0001 12.8 14.0001H3.2C2.53726 14.0001 2 13.4629 2 12.8001V3.20013C2 2.53739 2.53726 2.00013 3.2 2.00013H7.86615C8.1607 2.00013 8.39948 2.23891 8.39948 2.53346C8.39948 2.82802 8.1607 3.0668 7.86615 3.0668H3.2Z" fill="#005BC1"/>
</svg>
