<svg width="19" height="18" viewBox="0 0 19 18" fill="none" xmlns="http://www.w3.org/2000/svg">
<g clip-path="url(#clip0_10163_142976)">
<path d="M17.6102 17.3587C17.0703 15.6755 16.01 14.2072 14.5821 13.1655C13.154 12.1238 11.4321 11.5625 9.66447 11.5625C7.89685 11.5625 6.17491 12.1238 4.74688 13.1655C3.31886 14.2072 2.25852 15.6755 1.71875 17.3587H17.6102Z" stroke="white" stroke-width="1.28571" stroke-linecap="round" stroke-linejoin="round"/>
<path d="M9.66388 11.5699C12.669 11.5699 15.1051 9.13381 15.1051 6.12871C15.1051 3.12361 12.669 0.6875 9.66388 0.6875C6.65878 0.6875 4.22266 3.12361 4.22266 6.12871C4.22266 9.13381 6.65878 11.5699 9.66388 11.5699Z" stroke="white" stroke-width="1.28571" stroke-linecap="round" stroke-linejoin="round"/>
<path d="M11.4402 8.23438C11.4402 8.23438 10.9887 9.12273 9.66345 9.12273C8.3382 9.12273 7.88672 8.23438 7.88672 8.23438" stroke="white" stroke-width="1.28571" stroke-linecap="round" stroke-linejoin="round"/>
<path d="M15.008 5.09274C14.9958 5.09282 14.9837 5.09286 14.9716 5.09286C13.39 5.09286 11.97 4.4009 10.9978 3.30321C10.0257 4.40093 8.60568 5.0929 7.02406 5.0929C6.10562 5.0929 5.24167 4.85955 4.48828 4.44892C5.19612 2.2659 7.24636 0.6875 9.66526 0.6875C12.3161 0.6875 14.5242 2.58312 15.008 5.09274Z" stroke="white" stroke-width="1.28571" stroke-linecap="round" stroke-linejoin="round"/>
</g>
<defs>
<clipPath id="clip0_10163_142976">
<rect width="18" height="18" fill="white" transform="translate(0.666016)"/>
</clipPath>
</defs>
</svg>
