<svg width="16" height="16" viewBox="0 0 16 16" fill="none" xmlns="http://www.w3.org/2000/svg">
<path d="M1.5 14.6667V1.33333C1.5 0.596954 2.09695 0 2.83333 0H10.5L14.5 4V14.6667C14.5 15.403 13.903 16 13.1667 16H2.83333C2.09695 16 1.5 15.403 1.5 14.6667Z" fill="url(#paint0_radial_9903_22974)"/>
<path d="M11.0503 3.99989L14.5 3.99918L10.5001 0V3.44976C10.5001 3.75363 10.7465 3.99995 11.0503 3.99989Z" fill="url(#paint1_radial_9903_22974)"/>
<path d="M4.5 9.87891H11.5V11.6391L9.75 12.5957L8 13.0008L6.25 12.5957L4.5 11.6391V9.87891Z" fill="#4B5563"/>
<ellipse cx="8" cy="11.6327" rx="3.5" ry="1.36514" fill="#4B5563"/>
<path d="M4.5 8.12109H11.5V9.88124L9.75 10.8378L8 11.243L6.25 10.8378L4.5 9.88124V8.12109Z" fill="#7E8594"/>
<ellipse cx="8" cy="9.87686" rx="3.5" ry="1.36514" fill="#7E8594"/>
<path d="M4.5 6.36328H11.5V8.12343L9.75 9.08003L8 9.48517L6.25 9.08003L4.5 8.12343V6.36328Z" fill="#A6ADB9"/>
<ellipse cx="8" cy="8.121" rx="3.5" ry="1.36514" fill="#A6ADB9"/>
<ellipse cx="8" cy="6.36514" rx="3.5" ry="1.36514" fill="white"/>
<defs>
<radialGradient id="paint0_radial_9903_22974" cx="0" cy="0" r="1" gradientUnits="userSpaceOnUse" gradientTransform="translate(1.5 0.518341) rotate(51.289) scale(19.8404 16.1203)">
<stop stop-color="#E3E8F0"/>
<stop offset="1" stop-color="#ADB2BA"/>
</radialGradient>
<radialGradient id="paint1_radial_9903_22974" cx="0" cy="0" r="1" gradientUnits="userSpaceOnUse" gradientTransform="translate(10.5 0.642674) rotate(48.5773) scale(4.47734)">
<stop stop-color="#A6ADB9"/>
<stop offset="1" stop-color="#858C97"/>
</radialGradient>
</defs>
</svg>
