<svg width="16" height="16" viewBox="0 0 16 16" fill="none" xmlns="http://www.w3.org/2000/svg">
<g opacity="0.6">
<path d="M14.2852 2.85718H1.71378C1.0826 2.85718 0.570923 3.36886 0.570923 4.00003V12C0.570923 12.6312 1.0826 13.1429 1.71378 13.1429H14.2852C14.9164 13.1429 15.4281 12.6312 15.4281 12V4.00003C15.4281 3.36886 14.9164 2.85718 14.2852 2.85718Z" stroke="white" stroke-linecap="round" stroke-linejoin="round"/>
<path d="M5.14239 9.71422C6.08916 9.71422 6.85667 8.94671 6.85667 7.99993C6.85667 7.05315 6.08916 6.28564 5.14239 6.28564C4.19561 6.28564 3.4281 7.05315 3.4281 7.99993C3.4281 8.94671 4.19561 9.71422 5.14239 9.71422Z" stroke="white" stroke-linecap="round" stroke-linejoin="round"/>
<path d="M9.71375 6.28564H12.5709" stroke="white" stroke-linecap="round" stroke-linejoin="round"/>
<path d="M9.71375 9.71436H12.5709" stroke="white" stroke-linecap="round" stroke-linejoin="round"/>
</g>
</svg>
